<svg xmlns="http://www.w3.org/2000/svg" width="24" height="24" fill="none" viewBox="0 0 24 24">
  <path fill="#B6B7BF" fill-rule="evenodd" d="M7 4h5.786a5.001 5.001 0 0 1 4.598 3.033 5.163 5.163 0 0 1 2.168.168A7.003 7.003 0 0 0 12.786 2H7a7 7 0 0 0-7 7v6.655a7 7 0 0 0 7 7h5.786a7.003 7.003 0 0 0 6.766-5.2 5.12 5.12 0 0 1-2.168.168 5.001 5.001 0 0 1-4.598 3.032H7a5 5 0 0 1-5-5V9a5 5 0 0 1 5-5Z" clip-rule="evenodd"/>
  <rect width="8.234" height="8.684" x="13.963" y="7.986" stroke="#B6B7BF" stroke-width="2" rx="4.117"/>
</svg>
