<svg xmlns="http://www.w3.org/2000/svg" width="24" height="24" fill="none" viewBox="0 0 24 24">
  <rect width="20" height="20" x="2" y="2" stroke="#B6B7BF" stroke-width="2" rx="6"/>
  <path fill="#B6B7BF" d="m19.585 16.116-.786-.433c.12-.377.209-.77.209-1.18 0-.408-.08-.809-.209-1.178l.786-.433a.787.787 0 0 0 .312-1.07.812.812 0 0 0-1.09-.306l-.785.432a4.053 4.053 0 0 0-2.22-1.297v-.865A.796.796 0 0 0 15 9a.796.796 0 0 0-.802.786v.865a4.007 4.007 0 0 0-2.22 1.297l-.785-.432a.805.805 0 0 0-1.09.307.774.774 0 0 0 .312 1.07l.786.431c-.12.378-.209.771-.209 1.18 0 .409.08.81.209 1.18l-.786.432a.787.787 0 0 0-.312 1.07.79.79 0 0 0 .697.4.791.791 0 0 0 .393-.102l.785-.433a4.053 4.053 0 0 0 2.22 1.298v.865c0 .432.361.786.802.786.44 0 .802-.354.802-.786v-.865a4.007 4.007 0 0 0 2.22-1.297l.785.432a.77.77 0 0 0 .393.102c.28 0 .553-.141.697-.4a.774.774 0 0 0-.312-1.07Zm-4.593.747c-1.323 0-2.405-1.062-2.405-2.36 0-1.296 1.082-2.358 2.405-2.358 1.322 0 2.405 1.062 2.405 2.359s-1.082 2.359-2.405 2.359Z"/>
</svg>
