<svg xmlns="http://www.w3.org/2000/svg" width="24" height="24" fill="none" viewBox="0 0 24 24">
  <rect width="20" height="20" x="2" y="2" stroke="#B6B7BF" stroke-width="2" rx="6"/>
  <path fill="#B6B7BF" fill-rule="evenodd" d="M9.826 16.345a.795.795 0 1 0 1.124 1.124l4.502-4.502 1.75 1.75c.558.558 1.512.16 1.508-.629l-.023-4.512a.892.892 0 0 0-.01-.124.795.795 0 0 0-1.356-.602l-7.495 7.495Zm4.732-8.306a.795.795 0 1 0-1.125-1.125l-4.502 4.502-1.75-1.75c-.558-.558-1.512-.16-1.508.63l.024 4.511c0 .043.003.084.01.125a.795.795 0 0 0 1.356.602l7.495-7.495Z" clip-rule="evenodd"/>
</svg>
