<svg xmlns="http://www.w3.org/2000/svg" width="24" height="24" fill="none" viewBox="0 0 24 24">
  <rect width="20" height="20" x="2" y="2" stroke="#B6B7BF" stroke-width="2" rx="6"/>
  <path fill="#B6B7BF" d="M8.697 17a1.684 1.684 0 0 1-1.685-1.492 1.693 1.693 0 0 1 .102-.808l1.718-4.435a2.547 2.547 0 0 1 1.441-1.443l4.426-1.706a1.683 1.683 0 0 1 2.265 1.228c.067.321.04.656-.08.962l-1.718 4.418a2.548 2.548 0 0 1-1.441 1.444l-4.426 1.705c-.19.08-.395.122-.601.127Zm6.611-8.321-4.425 1.73a.838.838 0 0 0-.483.483l-1.703 4.434 4.418-1.745a.839.839 0 0 0 .483-.484l1.71-4.418Z"/>
</svg>
