<svg width="148" height="156" viewBox="0 0 148 156" fill="none" xmlns="http://www.w3.org/2000/svg">
    <g id="Group 262">
        <path id="Vector"
            d="M146.244 30.2705C145.695 27.1965 143.544 24.6497 140.61 23.5861L76.9836 0.522095C75.0635 -0.173926 72.9604 -0.174032 71.0402 0.521778L7.39034 23.5864C4.45594 24.6498 2.30446 27.1969 1.75563 30.2711C0.601068 36.7378 0 43.3906 0 50.1939C0 97.787 29.3183 138.54 70.8533 155.386C72.873 156.205 75.1509 156.205 77.1706 155.386C118.704 138.54 148 97.7869 148 50.1939C148 43.3904 147.399 36.7373 146.244 30.2705Z"
            fill="#101116" fill-opacity="0.7" />
        <path id="Vector_2"
            d="M137.13 35.8052C136.653 33.1487 134.784 30.9477 132.236 30.0286L76.9617 10.0972C75.2937 9.49569 73.4667 9.4956 71.7986 10.0969L16.5046 30.0289C13.9554 30.9478 12.0864 33.149 11.6096 35.8057C10.6066 41.3941 10.0845 47.1433 10.0845 53.0225C10.0845 94.1515 35.5539 129.37 71.6362 143.927C73.3908 144.635 75.3696 144.635 77.1242 143.927C113.205 129.37 138.655 94.1515 138.655 53.0225C138.655 47.1431 138.133 41.3936 137.13 35.8052Z"
            fill="url(#paint0_angular_556_12022)" />
        <g id="Group 246">
            <g id="Group 244">
                <path id="Vector_3" d="M67.2773 74.5724L84.1135 54.5195H74.1312L62.2849 68.6283L67.2773 74.5724Z"
                    fill="#B4FF99" />
                <path id="Vector_4" d="M62.2849 84.1925L74.1312 98.3014H84.1135L67.2773 78.2485L62.2849 84.1925Z"
                    fill="#B4FF99" />
                <path id="Vector_5"
                    d="M55.7 76.41L37.3206 98.3017H47.3041L65.6836 76.41L47.3041 54.5195H37.3206L55.7 76.41Z"
                    fill="#B4FF99" />
                <path id="Vector_6"
                    d="M96.4516 86.9084C95.2594 86.9111 94.0702 86.7903 92.9028 86.5481L83.1462 98.3076H92.5137L103.051 85.6064C100.958 86.471 98.7157 86.9134 96.4516 86.9084Z"
                    fill="#B4FF99" />
                <path id="Vector_7"
                    d="M96.4517 61.4482C98.5763 61.4507 100.613 62.2959 102.116 63.7984C103.618 65.3009 104.463 67.338 104.466 69.4628C104.463 71.5878 103.618 73.6251 102.116 75.1276C100.614 76.6302 98.5764 77.4753 96.4517 77.4775C94.327 77.475 92.2901 76.6298 90.7877 75.1273C89.2854 73.6248 88.4402 71.5877 88.4377 69.4628C88.4402 67.338 89.2854 65.3009 90.7877 63.7984C92.2901 62.2959 94.327 61.4507 96.4517 61.4482ZM96.4517 54.2418C92.4151 54.2418 88.5439 55.8455 85.6897 58.6999C82.8354 61.5544 81.2319 65.426 81.2319 69.4628C81.2319 73.4997 82.8354 77.3712 85.6897 80.2257C88.5439 83.0802 92.4151 84.6839 96.4517 84.6839C100.488 84.6839 104.359 83.0802 107.214 80.2257C110.068 77.3712 111.671 73.4997 111.671 69.4628C111.671 65.426 110.068 61.5544 107.214 58.6999C104.359 55.8455 100.488 54.2418 96.4517 54.2418Z"
                    fill="#B4FF99" />
            </g>
            <g id="Group 245">
                <path id="Vector_8" d="M66.728 74.5724L83.5642 54.5195H73.5818L61.7356 68.6284L66.728 74.5724Z"
                    fill="#1D1E23" />
                <path id="Vector_9" d="M61.7356 84.1926L73.5818 98.3014H83.5642L66.728 78.2485L61.7356 84.1926Z"
                    fill="#1D1E23" />
                <path id="Vector_10"
                    d="M55.1507 76.41L36.7712 98.3017H46.7548L65.1342 76.41L46.7548 54.5195H36.7712L55.1507 76.41Z"
                    fill="#1D1E23" />
                <path id="Vector_11"
                    d="M95.9023 86.9085C94.7101 86.9111 93.5208 86.7904 92.3535 86.5481L82.5969 98.3077H91.9644L102.502 85.6065C100.409 86.471 98.1664 86.9135 95.9023 86.9085Z"
                    fill="#1D1E23" />
                <path id="Vector_12"
                    d="M95.9021 61.4482C98.0268 61.4508 100.064 62.296 101.566 63.7985C103.068 65.301 103.914 67.3381 103.916 69.4629C103.914 71.5878 103.069 73.6251 101.566 75.1277C100.064 76.6302 98.0269 77.4753 95.9021 77.4776C93.7774 77.475 91.7405 76.6298 90.2382 75.1273C88.7358 73.6248 87.8907 71.5877 87.8881 69.4629C87.8907 67.3381 88.7358 65.301 90.2382 63.7985C91.7405 62.296 93.7774 61.4508 95.9021 61.4482ZM95.9021 54.2419C91.8656 54.2419 87.9944 55.8455 85.1401 58.7C82.2859 61.5545 80.6824 65.426 80.6824 69.4629C80.6824 73.4998 82.2859 77.3713 85.1401 80.2258C87.9944 83.0803 91.8656 84.6839 95.9021 84.6839C99.9386 84.6839 103.81 83.0803 106.664 80.2258C109.518 77.3713 111.122 73.4998 111.122 69.4629C111.122 65.426 109.518 61.5545 106.664 58.7C103.81 55.8455 99.9386 54.2419 95.9021 54.2419Z"
                    fill="#1D1E23" />
            </g>
        </g>
    </g>
    <defs>
        <radialGradient id="paint0_angular_556_12022" cx="0" cy="0" r="1" gradientUnits="userSpaceOnUse"
            gradientTransform="translate(74.3698 40.2014) rotate(-90) scale(57.1425 57.1394)">
            <stop stop-color="#4AFF4B" />
            <stop offset="0.0849345" stop-color="#44FF45" />
            <stop offset="0.222034" stop-color="#2EFF2F" />
            <stop offset="0.394194" stop-color="#00FF01" />
            <stop offset="0.594622" stop-color="#00DA01" />
            <stop offset="0.815961" stop-color="#009B01" />
            <stop offset="1" stop-color="#009801" />
        </radialGradient>
    </defs>
</svg>