<svg width="148" height="156" fill="none" xmlns="http://www.w3.org/2000/svg"><path d="M146.244 30.27a8.752 8.752 0 00-5.634-6.684L76.984.522a8.72 8.72 0 00-5.944 0L7.39 23.586a8.751 8.751 0 00-5.634 6.685A113.24 113.24 0 000 50.194c0 47.593 29.318 88.346 70.853 105.192a8.428 8.428 0 006.318 0C118.704 138.54 148 97.786 148 50.194c0-6.804-.601-13.457-1.756-19.924z" fill="#101116" fill-opacity=".7"/><path d="M137.13 35.805a7.575 7.575 0 00-4.894-5.776L76.962 10.097a7.613 7.613 0 00-5.163 0L16.505 30.029a7.573 7.573 0 00-4.895 5.777 97.361 97.361 0 00-1.525 17.217c0 41.128 25.469 76.347 61.551 90.904a7.355 7.355 0 005.488 0c36.081-14.557 61.531-49.775 61.531-90.904 0-5.88-.522-11.63-1.525-17.218z" fill="url(#prefix__paint0_angular_556_12022)"/><g fill="#B4FF99"><path d="M67.277 74.572L84.114 54.52H74.13L62.285 68.63l4.992 5.943zM62.285 84.192l11.846 14.11h9.983L67.276 78.248l-4.992 5.944zM55.7 76.41L37.32 98.302h9.984l18.38-21.892-18.38-21.89h-9.983L55.7 76.41z"/><path d="M96.452 86.908a17.276 17.276 0 01-3.55-.36l-9.756 11.76h9.368l10.537-12.702a17.184 17.184 0 01-6.6 1.302z"/><path d="M96.452 61.448a8.025 8.025 0 018.014 8.015 8.021 8.021 0 01-8.014 8.015 8.023 8.023 0 01-8.014-8.015 8.025 8.025 0 018.014-8.015zm0-7.206A15.22 15.22 0 0085.69 80.226a15.219 15.219 0 0025.981-10.763 15.222 15.222 0 00-15.22-15.221z"/></g><g fill="#1D1E23"><path d="M66.728 74.572L83.564 54.52h-9.982L61.736 68.63l4.992 5.943zM61.736 84.193L73.582 98.3h9.982L66.728 78.25l-4.992 5.944zM55.15 76.41L36.772 98.302h9.984l18.38-21.892-18.38-21.89H36.77l18.38 21.89z"/><path d="M95.902 86.909a17.276 17.276 0 01-3.549-.36l-9.756 11.759h9.367l10.538-12.702a17.187 17.187 0 01-6.6 1.303zM95.902 61.448a8.023 8.023 0 018.014 8.015 8.02 8.02 0 01-8.014 8.015 8.023 8.023 0 01-8.014-8.015 8.025 8.025 0 018.014-8.015zm0-7.206a15.22 15.22 0 00-15.22 15.22 15.222 15.222 0 0015.22 15.222 15.218 15.218 0 0015.22-15.221 15.223 15.223 0 00-15.22-15.221z"/></g><defs><radialGradient id="prefix__paint0_angular_556_12022" cx="0" cy="0" r="1" gradientUnits="userSpaceOnUse" gradientTransform="matrix(0 -57.1425 57.1394 0 74.37 40.201)"><stop stop-color="#4AFF4B"/><stop offset=".085" stop-color="#44FF45"/><stop offset=".222" stop-color="#2EFF2F"/><stop offset=".394" stop-color="#00FF01"/><stop offset=".595" stop-color="#00DA01"/><stop offset=".816" stop-color="#009B01"/><stop offset="1" stop-color="#009801"/></radialGradient></defs></svg>